<?xml version="1.0" encoding="utf-8"?>
<!DOCTYPE svg PUBLIC "-//W3C//DTD SVG 1.1//EN" "http://www.w3.org/Graphics/SVG/1.1/DTD/svg11.dtd">
<svg version="1.1" xmlns="http://www.w3.org/2000/svg" viewBox="0 0 908.03 100.09">
<defs><style>.cls-1{fill:#fff;}.cls-1,.cls-2,.cls-3,.cls-4,.cls-5,.cls-6,.cls-7,.cls-8{stroke:#000;stroke-miterlimit:10;}.cls-2,.cls-4,.cls-5,.cls-6,.cls-7,.cls-8{fill:none;}.cls-4{stroke-dasharray:5 5;}.cls-5{stroke-dasharray:4.97 4.97;}.cls-6{stroke-dasharray:5.2 5.2;}.cls-7{stroke-dasharray:5.63 5.63;}.cls-8{stroke-dasharray:4.95 4.95;}</style></defs><title>railroadink_dicefaces</title>


<view id='1' viewBox='0 0 100 100' />
<view id='2' viewBox='101 0 100 100' />
<view id='3' viewBox='202 0 100 100' />
<view id='4' viewBox='303 0 100 100' />
<view id='5' viewBox='404 0 100 100' />
<view id='6' viewBox='505 0 100 100' />
<view id='7' viewBox='606 0 100 100' />
<view id='8' viewBox='707 0 100 100' />
<view id='9' viewBox='808 0 100 100' />


<g id="Station_Straight" data-name="Station Straight"><rect class="cls-1" x="808.53" y="0.5" width="99" height="99" rx="12" ry="12"/><line class="cls-2" x1="851.52" y1="7.59" x2="864.54" y2="7.59"/><rect class="cls-3" x="848.03" y="40" width="20" height="20"/><rect class="cls-1" x="848.03" y="60.54" width="20" height="38.96"/><line class="cls-2" x1="858.03" y1="50" x2="858.03" y2="52.5"/><line class="cls-4" x1="858.03" y1="57.5" x2="858.03" y2="95"/><line class="cls-2" x1="858.03" y1="97.5" x2="858.03" y2="100"/><line class="cls-2" x1="858.03" y1="50" x2="858.03" y2="0.5"/><line class="cls-2" x1="851.52" y1="33.41" x2="864.54" y2="33.41"/><line class="cls-2" x1="851.52" y1="16.2" x2="864.54" y2="16.2"/><line class="cls-2" x1="851.52" y1="24.8" x2="864.54" y2="24.8"/></g><g id="Station_Corner" data-name="Station Corner"><rect class="cls-1" x="707.53" y="0.5" width="99" height="99" rx="12" ry="12"/><rect class="cls-3" x="747.03" y="40" width="20" height="20"/><rect class="cls-1" x="747.03" y="60.54" width="20" height="38.96"/><line class="cls-2" x1="757.03" y1="50" x2="757.03" y2="52.5"/><line class="cls-4" x1="757.03" y1="57.5" x2="757.03" y2="95"/><line class="cls-2" x1="757.03" y1="97.5" x2="757.03" y2="100"/><line class="cls-2" x1="756.56" y1="50" x2="707.53" y2="50"/><line class="cls-2" x1="714.16" y1="56.51" x2="714.16" y2="43.49"/><line class="cls-2" x1="739.97" y1="56.51" x2="739.97" y2="43.49"/><line class="cls-2" x1="722.76" y1="56.51" x2="722.76" y2="43.49"/><line class="cls-2" x1="731.36" y1="56.51" x2="731.36" y2="43.49"/></g><g id="Overpass"><rect class="cls-1" x="606.53" y="0.5" width="99" height="99" rx="12" ry="12"/><line class="cls-2" x1="655.56" y1="50" x2="606.53" y2="50"/><line class="cls-2" x1="613.16" y1="56.51" x2="613.16" y2="43.49"/><line class="cls-2" x1="638.97" y1="56.51" x2="638.97" y2="43.49"/><line class="cls-2" x1="621.76" y1="56.51" x2="621.76" y2="43.49"/><line class="cls-2" x1="630.36" y1="56.51" x2="630.36" y2="43.49"/><line class="cls-2" x1="656.03" y1="50" x2="705.53" y2="50"/><line class="cls-2" x1="698.44" y1="56.51" x2="698.44" y2="43.49"/><line class="cls-2" x1="672.63" y1="56.51" x2="672.63" y2="43.49"/><line class="cls-2" x1="689.83" y1="56.51" x2="689.83" y2="43.49"/><line class="cls-2" x1="681.23" y1="56.51" x2="681.23" y2="43.49"/><rect class="cls-1" x="646.03" y="0.5" width="20" height="99"/><line class="cls-2" x1="656.03" y1="0.5" x2="656.03" y2="3"/><line class="cls-5" x1="656.03" y1="7.97" x2="656.03" y2="95.01"/><line class="cls-2" x1="656.03" y1="97.5" x2="656.03" y2="100"/></g><g id="Road_Straight" data-name="Road Straight"><rect class="cls-1" x="505.53" y="0.5" width="99" height="99" rx="12" ry="12"/><rect class="cls-1" x="545.03" y="0.5" width="20" height="99"/><line class="cls-2" x1="555.03" y1="0.5" x2="555.03" y2="3"/><line class="cls-5" x1="555.03" y1="7.97" x2="555.03" y2="95.01"/><line class="cls-2" x1="555.03" y1="97.5" x2="555.03" y2="100"/></g><g id="Road_Corner" data-name="Road Corner"><rect class="cls-1" x="303.53" y="0.5" width="99" height="99" rx="12" ry="12"/><path class="cls-1" d="M303.83,60V40l33,.05a6.54,6.54,0,0,0,4.25-2,6.43,6.43,0,0,0,1.67-3.42L343,.51h20l.23,35a25.22,25.22,0,0,1-7.44,17.29,25.29,25.29,0,0,1-18.12,7Z" transform="translate(0.03 -0.01)"/><path class="cls-2" d="M303.5,50H306" transform="translate(0.03 -0.01)"/><path class="cls-6" d="M311.2,50c31.64.06,34.49.35,38.09-3.72,4-4.56,3.75-7.13,3.71-40.69" transform="translate(0.03 -0.01)"/><path class="cls-2" d="M353,3q0-1.22,0-2.5" transform="translate(0.03 -0.01)"/></g><g id="Road_Threeway" data-name="Road Threeway"><rect class="cls-1" x="404.53" y="0.5" width="99" height="99" rx="12" ry="12"/><path class="cls-1" d="M469.6,59.77l33.83.23V40l-33,.05a6.54,6.54,0,0,1-4.25-2,6.43,6.43,0,0,1-1.67-3.42L464.27.51h-20.5l-.25,34.17a6.43,6.43,0,0,1-1.67,3.42,6.54,6.54,0,0,1-4.25,2l-33-.05V60l33.83-.23Z" transform="translate(0.03 -0.01)"/><path class="cls-2" d="M454.5,44.92v-2.5" transform="translate(0.03 -0.01)"/><path class="cls-7" d="M454.5,36.8v-31" transform="translate(0.03 -0.01)"/><path class="cls-2" d="M454.5,3V.51" transform="translate(0.03 -0.01)"/><path class="cls-2" d="M404.46,50H407" transform="translate(0.03 -0.01)"/><path class="cls-8" d="M411.91,50q43.32,0,86.62,0" transform="translate(0.03 -0.01)"/><path class="cls-2" d="M501,50h2.5" transform="translate(0.03 -0.01)"/></g><g id="Rail_Threeway" data-name="Rail Threeway"><rect class="cls-1" x="101.53" y="0.5" width="99" height="99" rx="12" ry="12"/><line class="cls-2" x1="150.56" y1="50" x2="101.06" y2="50"/><line class="cls-2" x1="108.16" y1="56.51" x2="108.16" y2="43.49"/><line class="cls-2" x1="133.97" y1="56.51" x2="133.97" y2="43.49"/><line class="cls-2" x1="116.76" y1="56.51" x2="116.76" y2="43.49"/><line class="cls-2" x1="125.36" y1="56.51" x2="125.36" y2="43.49"/><line class="cls-2" x1="151.03" y1="50" x2="200.53" y2="50"/><line class="cls-2" x1="193.44" y1="56.51" x2="193.44" y2="43.49"/><line class="cls-2" x1="167.63" y1="56.51" x2="167.63" y2="43.49"/><line class="cls-2" x1="184.83" y1="56.51" x2="184.83" y2="43.49"/><line class="cls-2" x1="176.23" y1="56.51" x2="176.23" y2="43.49"/><line class="cls-2" x1="146.43" y1="45.4" x2="155.63" y2="54.6"/><line class="cls-2" x1="146.43" y1="54.6" x2="155.63" y2="45.4"/><line class="cls-2" x1="151.03" y1="50" x2="151.03" y2="0.5"/><line class="cls-2" x1="144.52" y1="7.59" x2="157.54" y2="7.59"/><line class="cls-2" x1="144.52" y1="33.41" x2="157.54" y2="33.41"/><line class="cls-2" x1="144.52" y1="16.2" x2="157.54" y2="16.2"/><line class="cls-2" x1="144.52" y1="24.8" x2="157.54" y2="24.8"/></g><g id="Rail_Corner" data-name="Rail Corner"><rect class="cls-1" x="0.5" y="0.5" width="99" height="99" rx="12" ry="12"/><line class="cls-2" x1="50.42" y1="50" x2="0.03" y2="50"/><line class="cls-2" x1="7.13" y1="56.51" x2="7.13" y2="43.49"/><line class="cls-2" x1="32.94" y1="56.51" x2="32.94" y2="43.49"/><line class="cls-2" x1="15.73" y1="56.51" x2="15.73" y2="43.49"/><line class="cls-2" x1="24.33" y1="56.51" x2="24.33" y2="43.49"/><line class="cls-2" x1="45.4" y1="45.4" x2="54.6" y2="54.6"/><line class="cls-2" x1="50" y1="50" x2="50" y2="0.5"/><line class="cls-2" x1="43.49" y1="7.59" x2="56.51" y2="7.59"/><line class="cls-2" x1="43.49" y1="33.41" x2="56.51" y2="33.41"/><line class="cls-2" x1="43.49" y1="16.2" x2="56.51" y2="16.2"/><line class="cls-2" x1="43.49" y1="24.8" x2="56.51" y2="24.8"/></g><g id="Rail_Straight" data-name="Rail Straight"><rect class="cls-1" x="202.5" y="0.59" width="99" height="99" rx="12" ry="12" transform="translate(302.12 -201.91) rotate(90)"/><line class="cls-2" x1="252.03" y1="50.5" x2="252.03" y2="0.12"/><line class="cls-2" x1="245.52" y1="7.21" x2="258.54" y2="7.21"/><line class="cls-2" x1="245.52" y1="33.02" x2="258.54" y2="33.02"/><line class="cls-2" x1="245.52" y1="15.82" x2="258.54" y2="15.82"/><line class="cls-2" x1="245.52" y1="24.42" x2="258.54" y2="24.42"/><line class="cls-2" x1="252.03" y1="50.09" x2="252.03" y2="99.59"/><line class="cls-2" x1="258.54" y1="92.49" x2="245.52" y2="92.49"/><line class="cls-2" x1="258.54" y1="66.68" x2="245.52" y2="66.68"/><line class="cls-2" x1="258.54" y1="83.89" x2="245.52" y2="83.89"/><line class="cls-2" x1="258.54" y1="75.29" x2="245.52" y2="75.29"/><line class="cls-2" x1="258.54" y1="40.87" x2="245.52" y2="40.87"/><line class="cls-2" x1="258.54" y1="58.08" x2="245.52" y2="58.08"/><line class="cls-2" x1="258.54" y1="49.47" x2="245.52" y2="49.47"/></g></svg>
